<svg preserveAspectRatio="none" width="100%" height="100%" overflow="visible" style="display: block;" viewBox="0 0 14 14" fill="none" xmlns="http://www.w3.org/2000/svg">
<path id="Vector" d="M6.71875 0C10.4294 0 13.4375 3.00809 13.4375 6.71875C13.4375 10.4294 10.4294 13.4375 6.71875 13.4375C3.00809 13.4375 0 10.4294 0 6.71875C0 3.00809 3.00809 0 6.71875 0ZM6.71875 0.9375C3.52585 0.9375 0.9375 3.52585 0.9375 6.71875C0.9375 9.91165 3.52585 12.5 6.71875 12.5C9.91165 12.5 12.5 9.91165 12.5 6.71875C12.5 3.52585 9.91165 0.9375 6.71875 0.9375ZM6.71875 8.59375C7.06393 8.59375 7.34375 8.87357 7.34375 9.21875C7.34375 9.56393 7.06393 9.84375 6.71875 9.84375C6.37357 9.84375 6.09375 9.56393 6.09375 9.21875C6.09375 8.87357 6.37357 8.59375 6.71875 8.59375ZM6.71875 3.125C7.62484 3.125 8.35938 3.85953 8.35938 4.76562C8.35938 5.36765 8.03512 5.89382 7.55371 6.17871C7.43083 6.25141 7.32884 6.33032 7.2627 6.4082C7.19849 6.48387 7.1875 6.5335 7.1875 6.5625V7.34375C7.1875 7.60263 6.97763 7.8125 6.71875 7.8125C6.45987 7.8125 6.25 7.60263 6.25 7.34375V6.5625C6.25 6.24632 6.3884 5.98965 6.54785 5.80176C6.70536 5.61617 6.90208 5.47409 7.07617 5.37109C7.28407 5.24792 7.42188 5.0227 7.42188 4.76562C7.42188 4.3773 7.10708 4.0625 6.71875 4.0625C6.33042 4.0625 6.01562 4.3773 6.01562 4.76562C6.01562 5.02451 5.80576 5.23438 5.54688 5.23438C5.28799 5.23438 5.07812 5.02451 5.07812 4.76562C5.07812 3.85953 5.81266 3.125 6.71875 3.125Z" fill="var(--fill-0, #ACA0BB)"/>
</svg>
