<svg preserveAspectRatio="none" width="100%" height="100%" overflow="visible" style="display: block;" viewBox="0 0 353 249" fill="none" xmlns="http://www.w3.org/2000/svg">
<g id="Menu BG">
<mask id="path-1-inside-1_94_1033" fill="white">
<path d="M315 0C335.987 9.66391e-07 353 17.0132 353 38V211C353 231.987 335.987 249 315 249H38C17.0132 249 0 231.987 0 211V38C0 17.0132 17.0132 0 38 0H96.957C96.957 1.96752 98.552 3.56247 100.52 3.5625H252.479C254.447 3.5625 256.042 1.96754 256.042 0H315Z"/>
</mask>
<path d="M315 0C335.987 9.66391e-07 353 17.0132 353 38V211C353 231.987 335.987 249 315 249H38C17.0132 249 0 231.987 0 211V38C0 17.0132 17.0132 0 38 0H96.957C96.957 1.96752 98.552 3.56247 100.52 3.5625H252.479C254.447 3.5625 256.042 1.96754 256.042 0H315Z" fill="var(--fill-0, #212124)"/>
<path d="M315 0L315 -0.5H315V0ZM38 249L38 249.5H38V249ZM96.957 0H97.457V-0.5H96.957V0ZM100.52 3.5625L100.52 4.0625H100.52V3.5625ZM256.042 0V-0.5H255.542V0H256.042ZM315 0L315 0.5C335.711 0.500001 352.5 17.2893 352.5 38H353H353.5C353.5 16.737 336.263 -0.499999 315 -0.5L315 0ZM353 38H352.5V211H353H353.5V38H353ZM353 211H352.5C352.5 231.711 335.711 248.5 315 248.5V249V249.5C336.263 249.5 353.5 232.263 353.5 211H353ZM315 249V248.5H38V249V249.5H315V249ZM38 249L38 248.5C17.2893 248.5 0.5 231.711 0.5 211H0H-0.5C-0.5 232.263 16.737 249.5 38 249.5L38 249ZM0 211H0.5V38H0H-0.5V211H0ZM0 38H0.5C0.5 17.2893 17.2893 0.5 38 0.5V0V-0.5C16.737 -0.5 -0.5 16.737 -0.5 38H0ZM38 0V0.5H96.957V0V-0.5H38V0ZM96.957 0H96.457C96.457 2.24367 98.2759 4.06247 100.52 4.0625L100.52 3.5625L100.52 3.0625C98.8282 3.06248 97.457 1.69137 97.457 0H96.957ZM100.52 3.5625V4.0625H252.479V3.5625V3.0625H100.52V3.5625ZM252.479 3.5625V4.0625C254.723 4.0625 256.542 2.24368 256.542 0H256.042H255.542C255.542 1.6914 254.171 3.0625 252.479 3.0625V3.5625ZM256.042 0V0.5H315V0V-0.5H256.042V0Z" fill="var(--stroke-0, #6A6A76)" mask="url(#path-1-inside-1_94_1033)"/>
</g>
</svg>
