<svg width="20" height="18" viewBox="0 0 20 18" fill="none" xmlns="http://www.w3.org/2000/svg">
<path fill-rule="evenodd" clip-rule="evenodd" d="M10.0856 0.9375C9.50419 0.9375 8.97593 1.08961 8.40282 1.34418C7.84882 1.59026 7.20883 1.95307 6.40944 2.40624L4.71257 3.36817C3.95618 3.79696 3.3505 4.1403 2.88367 4.46686C2.40024 4.80502 2.02894 5.14942 1.76074 5.59697C1.49309 6.04359 1.37257 6.51881 1.31478 7.08053C1.25878 7.62491 1.25878 8.29058 1.25879 9.12542V10.3349C1.25878 11.7628 1.25877 12.8899 1.38417 13.7712C1.51282 14.6752 1.78311 15.4051 2.39384 15.9821C3.00739 16.5618 3.78816 16.8207 4.75471 16.9435C5.69149 17.0625 6.8879 17.0625 8.39567 17.0625H11.7755C13.2833 17.0625 14.4798 17.0625 15.4165 16.9435C16.3831 16.8207 17.1639 16.5618 17.7774 15.9821C18.3881 15.4051 18.6584 14.6752 18.7871 13.7712C18.9125 12.8899 18.9125 11.7628 18.9125 10.3349V9.12541C18.9125 8.2906 18.9125 7.62489 18.8565 7.08053C18.7987 6.51881 18.6782 6.04359 18.4105 5.59697C18.1423 5.14942 17.771 4.80502 17.2876 4.46686C16.8208 4.1403 16.2151 3.79696 15.4587 3.36819L13.7618 2.40624C12.9624 1.95307 12.3224 1.59026 11.7684 1.34418C11.1953 1.08961 10.6671 0.9375 10.0856 0.9375ZM7.03074 3.37809C7.86478 2.90528 8.45122 2.57365 8.94146 2.3559C9.41908 2.14374 9.75733 2.0625 10.0856 2.0625C10.4139 2.0625 10.7522 2.14374 11.2298 2.3559C11.72 2.57365 12.3065 2.90528 13.1405 3.37809L14.7827 4.30903C15.5717 4.75627 16.1256 5.07101 16.5387 5.36002C16.9407 5.64123 17.172 5.87329 17.3301 6.13714C17.4888 6.40192 17.5814 6.71149 17.6302 7.18578C17.6802 7.67144 17.6808 8.28436 17.6808 9.15294V10.2937C17.6808 11.7719 17.6796 12.8259 17.5657 13.6262C17.4538 14.4122 17.2432 14.8683 16.8919 15.2001C16.5435 15.5293 16.0691 15.7248 15.2469 15.8293C14.4048 15.9362 13.2941 15.9375 11.7278 15.9375H8.44342C6.87715 15.9375 5.7665 15.9362 4.92437 15.8293C4.10215 15.7248 3.62778 15.5293 3.27935 15.2001C2.9281 14.8683 2.71741 14.4122 2.60555 13.6262C2.49166 12.8259 2.49044 11.7719 2.49044 10.2937V9.15294C2.49044 8.28436 2.49107 7.67144 2.54103 7.18578C2.58982 6.71149 2.68245 6.40192 2.84113 6.13714C2.99924 5.87329 3.23052 5.64123 3.63253 5.36002C4.04569 5.07101 4.5996 4.75627 5.38854 4.30903L7.03074 3.37809Z" fill="#D4CFDA"/>
<path d="M13.2608 12.4467C13.2608 12.9582 12.3362 13.208 11.5418 13.208C10.3827 13.208 10.1352 12.6727 9.19756 12.6727C8.85895 12.6727 8.44221 12.7916 8.02546 12.982C7.94732 13.0057 7.86918 13.0176 7.79104 13.0176C7.51755 13.0176 7.29616 12.8273 7.29616 12.5656C7.29616 12.3872 7.38732 12.2206 7.56965 12.1255C8.39012 11.7091 8.87198 11.1381 8.87198 10.5552C8.87198 10.3054 8.79384 10.0675 8.67663 9.8653H7.19197C6.9836 9.8653 6.80127 9.69877 6.80127 9.48464C6.80127 9.29431 6.9836 9.12778 7.19197 9.12778H8.12965C7.69988 8.66385 7.23104 8.14044 7.23104 7.37912C7.23104 6.01113 8.63756 5 10.2134 5C11.2683 5 12.245 5.38066 12.7008 6.02302C12.7529 6.0944 12.779 6.17767 12.779 6.26093C12.779 6.55833 12.5185 6.77245 12.1929 6.77245C12.0366 6.77245 11.8804 6.71297 11.7632 6.60591C11.3725 6.28473 10.9427 5.97544 10.3566 5.97544C9.41896 5.97544 8.62454 6.51074 8.62454 7.39102C8.62454 8.18802 9.15849 8.61626 9.56221 9.12778H11.1901C11.3985 9.12778 11.5808 9.29431 11.5808 9.50844C11.5808 9.69877 11.3985 9.8653 11.1901 9.8653H9.93989C9.97896 9.99616 10.018 10.1389 10.018 10.2935C10.018 10.9835 9.57524 11.4831 9.06733 11.8043C9.24965 11.7448 9.51012 11.6972 9.73152 11.6972C10.539 11.6972 10.8776 12.1612 11.5939 12.1612C12.0236 12.1612 12.3753 11.9351 12.6487 11.9351C12.9353 11.9351 13.2608 12.1374 13.2608 12.4467Z" fill="#D4CFDA"/>
</svg>
